<svg width="420" height="110" viewBox="0 0 420 110" fill="none" xmlns="http://www.w3.org/2000/svg">
<path d="M419.8 91C419.8 91.2 419.8 91.4 419.8 91.6H226.1C226.1 91.4 226.1 91.2 226 91H419.8ZM242.2 106C242.5 106.9 243 108.1 243 108.6C243 109.2 242.5 109.3 242 109.4V109.6H245.8V109.4C244.8 109.2 244.6 108.8 244.2 107.9L241.4 100.4C241.1 100.7 240.8 100.9 240.5 101.1C240.6 101.3 240.5 101.6 240.4 102L239.6 104.1L238.2 107.9C237.8 108.9 237.7 109.2 236.6 109.5V109.7H240V109.5C239.4 109.4 238.5 109.4 238.5 108.6C238.5 108 239.1 106.7 239.3 106H242.2ZM242 105.4H239.5L240.7 102.1L242 105.4ZM256.6 105C257.6 104.7 258.9 104.3 258.9 103C258.9 101 256.4 100.8 254.9 100.9L252.3 101V101.2C253.8 101.4 253.8 101.8 253.8 103.1V107.5C253.8 108.8 253.7 109.2 252.2 109.4V109.6H255.7C256.3 109.6 259.4 109.7 259.4 107.3C259.5 105.8 257.8 105.3 256.6 105ZM255 105.3H255.5C257.4 105.2 258.1 106.8 258.1 107.5C258.1 108.6 257.3 109.4 256.2 109.4C254.9 109.4 255 108.5 255 107.5V105.3ZM255 101.2C256.3 101.2 257.7 101.7 257.7 103.2C257.7 104.7 256.2 105 255 105V101.2ZM271.5 105C272.5 104.7 273.8 104.3 273.8 103C273.8 101 271.3 100.8 269.8 100.9L267.2 101V101.2C268.7 101.4 268.7 101.8 268.7 103.1V107.5C268.7 108.8 268.6 109.2 267.1 109.4V109.6H270.6C271.2 109.6 274.3 109.7 274.3 107.3C274.3 105.8 272.6 105.3 271.5 105ZM269.8 105.3H270.3C272.2 105.2 272.9 106.8 272.9 107.5C272.9 108.6 272.1 109.4 271 109.4C269.7 109.4 269.8 108.5 269.8 107.5V105.3ZM269.8 101.2C271.1 101.2 272.5 101.7 272.5 103.2C272.5 104.7 271 105 269.8 105V101.2ZM281.9 109.6H289C289.3 108.8 289.4 108 289.4 107.1H289.2C288.9 108.7 288.1 109.3 286.5 109.3C284.4 109.3 284.6 108.3 284.6 107.5V105.4H285.9C286.9 105.4 287.6 105.4 287.7 106.5H288V103.7H287.8C287.7 104.8 286.9 104.9 286 104.9H284.7V101.3H285.9C287.2 101.3 288.4 101.3 288.5 103H288.7L288.9 101H282V101.2C283.5 101.4 283.5 101.8 283.6 103.1V107.6C283.6 108.9 283.5 109.3 282 109.5V109.6H281.9ZM301.1 100.9V101.1C302.2 101.2 302.3 101.7 301.5 103.2L300.4 105.3L299.1 102.5C298.7 101.6 298.6 101.2 299.6 101V100.8H296.1V101C297.4 101.2 297.7 102.1 298.2 103.1L299.5 106V107C299.5 108.5 299.4 109 297.8 109.2V109.4H302.3V109.2C300.7 108.9 300.6 108.4 300.6 107V105.6L302.1 102.6C302.6 101.7 303.2 101.1 304.3 101V100.8H301.1V100.9ZM326 101.3C325.4 101 324.8 100.8 324.1 100.8C322.7 100.8 321.3 101.7 321.3 103.2C321.3 105.8 325.2 105.5 325.2 107.8C325.2 108.8 324.5 109.4 323.5 109.4C322.1 109.4 321.2 108.2 320.9 107H320.7L321.1 109.2C321.8 109.6 322.6 109.9 323.3 109.9C324.8 109.9 326.4 109 326.4 107.4C326.4 104.8 322.4 104.9 322.4 102.7C322.4 101.9 323.1 101.3 323.9 101.3C325.2 101.3 325.5 102.3 325.7 103.3H325.9L326 101.3ZM342 101.5C341.2 101 340.2 100.8 339.2 100.8C335.8 100.8 334.1 103.1 334.1 105.4C334.1 108.3 336.5 109.8 339.1 109.8C340 109.8 340.9 109.6 341.7 109.2C342 108.5 342.3 107.7 342.4 106.9L342.2 106.8C341.6 108.2 341 109.4 339.3 109.4C337.4 109.4 335.5 107.6 335.5 105.1C335.5 102.9 336.8 101 339.2 101C340.7 101 341.6 102 341.8 103.5H342V101.5ZM352.3 105.4H357.4V107.5C357.4 108.9 357.4 109.2 355.7 109.4V109.6H360.1V109.4C358.6 109.2 358.6 108.8 358.5 107.5V103C358.5 101.7 358.6 101.3 360.1 101.1V100.9H355.7V101.1C357.4 101.3 357.4 101.6 357.4 103V104.9H352.3V103C352.3 101.6 352.3 101.3 354 101.1V100.9H349.6V101.1C351.1 101.3 351.1 101.7 351.2 103V107.5C351.2 108.8 351.1 109.2 349.6 109.4V109.6H354V109.4C352.3 109.2 352.3 108.9 352.3 107.5V105.4ZM376.9 105.3C376.9 103 375.5 100.8 372.2 100.8C369.5 100.8 367.5 102.6 367.5 105.3C367.5 108.1 369.5 109.8 372.2 109.8C374.9 109.8 376.9 108 376.9 105.3ZM369 105C369 103.3 369.9 101.1 372.1 101.1C374.1 101.1 375.4 103.2 375.4 105.5C375.4 107.3 374.5 109.5 372.4 109.5C370.1 109.5 369 106.9 369 105ZM394 105.3C394 103 392.6 100.8 389.3 100.8C386.6 100.8 384.6 102.6 384.6 105.3C384.6 108.1 386.6 109.8 389.3 109.8C392 109.8 394 108 394 105.3ZM386.1 105C386.1 103.3 387 101.1 389.2 101.1C391.2 101.1 392.5 103.2 392.5 105.5C392.5 107.3 391.6 109.5 389.5 109.5C387.2 109.5 386.1 106.9 386.1 105ZM401.5 109.6H408.6L409.3 107.2L409.1 107.1C408.1 108.7 407.8 109.3 405.9 109.2L404.3 109.1C404.1 108.5 404.1 107.8 404.1 107.2V103C404.1 101.7 404.1 101.3 405.7 101.1V100.9H401.4V101.1C402.9 101.3 402.9 101.7 403 103V107.5C403 108.8 403 109.2 401.4 109.4V109.6H401.5ZM237.5 65C236.4 64.4 235 64 233.7 64C230.9 64 227.9 65.9 227.9 69C227.9 74.2 235.9 73.8 235.9 78.4C235.9 80.4 234.4 81.6 232.5 81.6C229.6 81.6 227.9 79.1 227.2 76.6H226.7L227.4 81C228.7 81.9 230.4 82.3 232 82.3C235 82.3 238.3 80.6 238.3 77.2C238.3 71.9 230.1 72.1 230.1 67.6C230.1 65.9 231.5 64.7 233.1 64.7C235.7 64.7 236.4 66.7 236.8 68.8H237.2L237.5 65ZM244.1 72.3C244.9 69.4 246.4 69.1 249.2 69.1V77.5C249.2 81.2 248.9 81 246.2 81.4V82H254.9V81.4C252.1 81 251.9 81.1 251.9 77.5V69.1C254.7 69.1 256.2 69.4 257 72.3L257.6 72.2L257 67.6H256.6C256.2 68.3 255.5 68.2 254.8 68.2H246.3C245.9 68.2 245.6 68.2 245.3 68.2C245 68.1 244.7 68 244.5 67.6H244L243.5 72.1L244.1 72.3ZM285.7 74.6C286.4 76.4 287.4 78.9 287.4 80C287.4 81.2 286.3 81.5 285.4 81.7V82H293V81.6C290.9 81.2 290.5 80.5 289.8 78.6L284.1 63.3C283.6 64 282.9 64.4 282.2 64.7C282.5 65.2 282.1 65.8 281.9 66.5L280.3 70.7L277.4 78.4C276.6 80.4 276.4 81 274 81.6V82H281.1V81.6C279.9 81.4 278.1 81.4 278.1 79.8C278.1 78.6 279.2 75.8 279.7 74.5H285.7V74.6ZM285.4 73.4H280.2L282.6 66.6L285.4 73.4ZM300.4 78.5C300.4 81.2 299.4 81.1 297.9 81.4V82H304.5V81.4C302.1 80.9 301.7 80.7 301.6 78.2C301.5 76 301.4 73.9 301.5 71.6C304.8 75.2 309.6 80 311.6 82.5L312.5 82.1V73.1C312.5 69.8 312.6 69 314.4 68.8V68.2H308.3V68.8C310.7 69.1 311.3 69.4 311.3 71.8L311.4 78.2C308.5 74.8 305 71.4 302.4 68.1H297.8V68.7C300.4 69.1 300.4 70.6 300.4 72.7V78.5ZM329.7 68.8C328.7 68.2 327.5 67.9 326.3 67.9C323.8 67.9 321.3 69.4 321.3 72.1C321.3 76.1 327.9 75.8 327.9 79.2C327.9 80.5 326.9 81.4 325.6 81.4C323.2 81.4 321.7 79.2 321.1 77.2L320.5 77.3L321.2 81.3C322.5 81.9 323.9 82.3 325.3 82.3C327.9 82.3 330.7 81.1 330.7 78.2C330.7 74 324.1 74.2 324.1 70.9C324.1 69.7 324.9 68.8 326.2 68.8C328.3 68.8 328.8 70.6 329.1 72.3H329.7V68.8ZM343.1 75.5C344.9 75.5 345.8 75.5 346.2 77.4H346.8C346.7 75.7 346.8 74 346.9 72.3H346.4C345.9 74.1 345 74.3 343.2 74.3H341.5V69.1H343C345.2 69.1 347 69.1 347.1 71.8H347.7L348.1 68.3H336.1V68.9C338.5 69.3 338.8 69.2 338.8 72.8V77.6C338.8 81.3 338.5 81.1 336.1 81.5V82H348.3C348.8 80.5 349.1 78.9 349 77.4H348.4C347.8 79.7 346.7 81.2 344.1 81.2C341.4 81.2 341.4 80.3 341.4 78.2V75.5H343.1ZM368.4 77.2L367.8 77C366.2 79.8 365.4 81.1 361.9 81.1C359.8 81.1 360.1 80.9 360.1 80.2V72.8C360.1 70.1 360 69.1 362.8 68.9V68.3H354.8V68.9C357.2 69.3 357.5 69.2 357.5 72.8V77.6C357.5 81.3 357.2 81.1 354.8 81.5V82H366.9L368.4 77.2ZM387.5 77.9C387.6 80.5 387.8 81.1 385 81.5V82H392.8V81.4C390.3 81 390.3 80.3 390.2 78L389.9 71.5C389.8 69.6 390.1 69.2 392.1 68.8V68.2H386.4V68.6C386.9 69.1 386.5 70 386.2 70.5L382.9 78L380.1 71.5C379.8 70.8 379 69.3 379.5 68.6V68.2H374.2V68.8C375.4 69.1 376.5 69.1 376.3 70.6L375.1 79.2C374.8 80.8 374.4 80.9 372.9 81.3V82H379V81.4C377.4 81 376.5 81 376.6 79.2L377.1 71.3L381.7 82.2H382.3L387 70.9L387.5 77.9ZM399.4 74.7C401 73.8 402.6 72.4 402.6 70.5C402.6 69.2 401.9 68 400.5 68C399.5 68 398.7 68.7 398.7 69.7C398.7 70 398.8 70.3 399 70.6C399.3 70.4 399.6 70.3 399.9 70.3C400.7 70.3 401.2 70.8 401.2 71.6C401.2 72.8 400.1 73.6 399.2 74.2L399.4 74.7ZM418.3 68.8C417.3 68.2 416.1 67.9 414.9 67.9C412.4 67.9 409.9 69.4 409.9 72.1C409.9 76.1 416.5 75.8 416.5 79.2C416.5 80.5 415.5 81.4 414.2 81.4C411.8 81.4 410.3 79.2 409.7 77.2L409.1 77.3L409.8 81.3C411.1 81.9 412.5 82.3 413.9 82.3C416.5 82.3 419.3 81.1 419.3 78.2C419.3 74 412.7 74.2 412.7 70.9C412.7 69.7 413.5 68.8 414.8 68.8C416.9 68.8 417.4 70.6 417.8 72.3H418.4L418.3 68.8ZM262.3 82.8C263.1 82.8 263.6 82.2 263.6 81.4C263.6 80.6 263.1 80 262.3 80C261.5 80 261 80.6 261 81.4C261 82.2 261.6 82.8 262.3 82.8ZM311.7 5.2C309.2 7.9 310 10.3 310 10.3C309.2 11.2 309.2 13.1 310.9 13.5C312.6 14 313.9 11.1 312.2 8.9C311.2 7.7 311.7 5.2 311.7 5.2ZM316.1 3.8C313.6 6.3 314.4 8.5 314.4 8.5C313.6 9.3 313.6 11.1 315.3 11.5C317 11.9 318.3 9.3 316.6 7.2C315.6 6.1 316.1 3.8 316.1 3.8ZM307.4 3.8C304.9 6.3 305.7 8.5 305.7 8.5C304.9 9.3 304.9 11.1 306.6 11.5C308.3 11.9 309.6 9.3 307.9 7.2C306.9 6.1 307.4 3.8 307.4 3.8ZM311.7 24.9C309.2 27.5 310 30 310 30C309.2 30.9 309.2 32.8 310.9 33.2C312.6 33.7 313.9 30.8 312.2 28.6C311.2 27.3 311.7 24.9 311.7 24.9ZM334.7 24.9C332.2 27.6 333 30 333 30C332.2 30.9 332.2 32.8 333.9 33.2C335.6 33.7 336.9 30.8 335.2 28.6C334.2 27.3 334.7 24.9 334.7 24.9ZM316.1 23.2C313.6 25.7 314.4 28 314.4 28C313.6 28.8 313.6 30.6 315.3 31C317 31.4 318.3 28.8 316.6 26.7C315.6 25.5 316.1 23.2 316.1 23.2ZM316.4 31.7C313.9 34.2 314.7 36.5 314.7 36.5C313.9 37.3 313.9 39.1 315.6 39.5C317.3 39.9 318.6 37.3 316.9 35.2C315.9 34 316.4 31.7 316.4 31.7ZM330.2 23.2C327.7 25.7 328.5 28 328.5 28C327.7 28.8 327.7 30.6 329.4 31C331.1 31.4 332.4 28.8 330.7 26.7C329.7 25.5 330.2 23.2 330.2 23.2ZM330.5 31.7C328 34.2 328.8 36.5 328.8 36.5C328 37.3 328 39.1 329.7 39.5C331.4 39.9 332.7 37.3 331 35.2C330 34 330.5 31.7 330.5 31.7ZM334.9 5.2C332.4 7.9 333.2 10.3 333.2 10.3C332.4 11.2 332.4 13.1 334.1 13.5C335.8 14 337.1 11.1 335.4 8.9C334.4 7.7 334.9 5.2 334.9 5.2ZM339.3 3.8C336.8 6.3 337.6 8.5 337.6 8.5C336.8 9.3 336.8 11.1 338.5 11.5C340.2 11.9 341.5 9.3 339.8 7.2C338.7 6.1 339.3 3.8 339.3 3.8ZM330.6 3.8C328.1 6.3 328.9 8.5 328.9 8.5C328.1 9.3 328.1 11.1 329.8 11.5C331.5 11.9 332.8 9.3 331.1 7.2C330.1 6.1 330.6 3.8 330.6 3.8ZM344.9 0V16.5C344.9 16.5 344.9 38.5 322.9 49.5C300.9 38.5 300.9 16.5 300.9 16.5V0H344.9ZM328.4 3.8C327.8 3.2 327.2 2.9 326.6 2.7V14.5H342C342.3 13.5 342.3 12.2 340.9 10.8C340.9 10.8 343.6 8.1 340.9 5.3C340.9 5.3 342.4 3.8 342.1 2.6C340.9 2.5 339.4 3.8 339.4 3.8C336.7 1.1 333.9 3.8 333.9 3.8C331.1 1.1 328.4 3.8 328.4 3.8ZM322.9 22.2C324.9 22.2 326.5 20.6 326.5 18.7C326.5 17.4 325.8 16.2 324.7 15.6C325.4 16.1 325.8 16.9 325.8 17.9C325.8 19.5 324.5 20.8 322.9 20.8C321.3 20.8 320 19.5 320 17.9C320 17 320.4 16.2 321.1 15.6C320 16.2 319.3 17.4 319.3 18.7C319.4 20.6 321 22.2 322.9 22.2ZM303.7 2.6C303.4 3.9 304.9 5.3 304.9 5.3C302.2 8 304.9 10.8 304.9 10.8C303.6 12.1 303.5 13.4 303.8 14.5H319.1V2.7C318.5 2.9 318 3.2 317.4 3.8C317.4 3.8 314.7 1.1 311.9 3.8C311.9 3.8 309.2 1.1 306.4 3.8C306.4 3.8 304.9 2.5 303.7 2.6ZM315.9 40.6C315.9 40.6 316.3 43.2 319.1 44V22H304.9C304.7 22.7 303.8 25.6 307 27C307 27 305.5 30.6 309 32.1C309 32.1 308.6 36 312.4 36.4C312.5 36.3 312.1 40.2 315.9 40.6ZM338.8 26.9C342 25.5 341.1 22.6 340.9 21.9H326.6V43.9C329.4 43.1 329.9 40.5 329.9 40.5C333.8 40.1 333.3 36.2 333.3 36.2C337.2 35.8 336.8 31.9 336.8 31.9C340.4 30.5 338.8 26.9 338.8 26.9Z" fill="#511110"/>
<line x1="186.5" y1="15" x2="186.5" y2="95" stroke="black"/>
<path d="M6.86188 39.18C6.04854 39.18 5.30854 39.08 4.64188 38.88C3.97521 38.6667 3.28188 38.3533 2.56188 37.94C2.69521 37.18 2.76188 36.18 2.76188 34.94C3.14854 34.8333 3.63521 34.78 4.22188 34.78C4.28854 35.9133 4.53521 36.74 4.96188 37.26C5.38854 37.78 6.08188 38.04 7.04188 38.04C7.84188 38.04 8.43521 37.8667 8.82188 37.52C9.22188 37.16 9.42188 36.7067 9.42188 36.16C9.42188 35.72 9.29521 35.34 9.04188 35.02C8.80188 34.7 8.49521 34.4333 8.12188 34.22C7.74854 33.9933 7.24854 33.7333 6.62188 33.44C5.80854 33.0667 5.14854 32.72 4.64188 32.4C4.13521 32.0667 3.70188 31.6267 3.34188 31.08C2.99521 30.5333 2.82188 29.8533 2.82188 29.04C2.82188 27.8533 3.20854 26.9333 3.98188 26.28C4.75521 25.6267 5.78854 25.3 7.08188 25.3C7.76188 25.3 8.42854 25.3867 9.08188 25.56C9.73521 25.72 10.2552 25.9267 10.6419 26.18C10.6419 27.46 10.6819 28.3733 10.7619 28.92C10.4285 29.0933 9.94188 29.18 9.30188 29.18C9.11521 28.1133 8.84188 27.38 8.48188 26.98C8.12188 26.58 7.62188 26.38 6.98188 26.38C6.34188 26.38 5.83521 26.5333 5.46188 26.84C5.10188 27.1467 4.92188 27.58 4.92188 28.14C4.92188 28.6067 5.04854 29.0067 5.30188 29.34C5.56854 29.6733 5.89521 29.9533 6.28188 30.18C6.66854 30.4067 7.19521 30.68 7.86188 31C8.67521 31.3867 9.33521 31.74 9.84188 32.06C10.3485 32.38 10.7752 32.8067 11.1219 33.34C11.4819 33.86 11.6619 34.5 11.6619 35.26C11.6619 36.0067 11.4819 36.6733 11.1219 37.26C10.7752 37.8467 10.2419 38.3133 9.52188 38.66C8.80188 39.0067 7.91521 39.18 6.86188 39.18ZM18.9356 33.04C19.669 33.04 20.269 32.8067 20.7356 32.34C21.2156 31.8733 21.4556 31.0867 21.4556 29.98C21.4556 28.9 21.2023 28.0533 20.6956 27.44C20.2023 26.8267 19.4356 26.52 18.3956 26.52C18.089 26.52 17.769 26.56 17.4356 26.64V35.78C17.4356 36.3533 17.4956 36.8 17.6156 37.12C17.749 37.4267 17.949 37.6467 18.2156 37.78C18.4823 37.9 18.8556 37.9733 19.3356 38C19.4156 38.2267 19.4556 38.58 19.4556 39.06C18.8023 39.02 17.8356 39 16.5556 39C15.1423 39 14.1223 39.02 13.4956 39.06C13.4956 38.5667 13.529 38.2133 13.5956 38C13.969 37.9733 14.249 37.9067 14.4356 37.8C14.6356 37.6933 14.7756 37.5133 14.8556 37.26C14.9356 37.0067 14.9756 36.6267 14.9756 36.12V28.34C14.9756 27.8467 14.9356 27.4733 14.8556 27.22C14.7756 26.9667 14.6423 26.7867 14.4556 26.68C14.269 26.5733 13.989 26.5067 13.6156 26.48C13.5356 26.2 13.4956 25.8467 13.4956 25.42C14.229 25.46 15.1823 25.48 16.3556 25.48L18.0556 25.46C18.4023 25.4467 18.8156 25.44 19.2956 25.44C20.9623 25.44 22.169 25.8067 22.9156 26.54C23.6756 27.26 24.0556 28.2133 24.0556 29.4C24.0556 30.2533 23.8756 31.0467 23.5156 31.78C23.1556 32.5 22.6223 33.08 21.9156 33.52C21.209 33.9467 20.3623 34.16 19.3756 34.16C18.8156 34.16 18.349 34.0867 17.9756 33.94C17.949 33.78 17.9356 33.6533 17.9356 33.56C17.9356 33.3467 17.9756 33.14 18.0556 32.94C18.2823 33.0067 18.5756 33.04 18.9356 33.04ZM32.1417 39.18C30.8084 39.18 29.6351 38.88 28.6217 38.28C27.6217 37.68 26.8417 36.8533 26.2817 35.8C25.7351 34.7333 25.4617 33.5333 25.4617 32.2C25.4617 30.84 25.7484 29.64 26.3217 28.6C26.9084 27.56 27.7084 26.7533 28.7217 26.18C29.7351 25.5933 30.8751 25.3 32.1417 25.3C33.4351 25.3 34.5884 25.5867 35.6017 26.16C36.6284 26.7333 37.4217 27.5333 37.9817 28.56C38.5551 29.5867 38.8417 30.7733 38.8417 32.12C38.8417 33.4533 38.5551 34.66 37.9817 35.74C37.4217 36.8067 36.6351 37.6467 35.6217 38.26C34.6084 38.8733 33.4484 39.18 32.1417 39.18ZM32.5017 38.04C33.2617 38.04 33.9217 37.8067 34.4817 37.34C35.0417 36.8733 35.4684 36.2333 35.7617 35.42C36.0684 34.5933 36.2217 33.66 36.2217 32.62C36.2217 31.4733 36.0284 30.4267 35.6417 29.48C35.2684 28.5333 34.7417 27.7867 34.0617 27.24C33.3817 26.68 32.6151 26.4 31.7617 26.4C31.0551 26.4 30.4217 26.62 29.8617 27.06C29.3017 27.4867 28.8617 28.1 28.5417 28.9C28.2351 29.7 28.0817 30.6267 28.0817 31.68C28.0817 32.8133 28.2551 33.8667 28.6017 34.84C28.9484 35.8 29.4551 36.5733 30.1217 37.16C30.7884 37.7467 31.5817 38.04 32.5017 38.04ZM46.9269 39.18C45.5935 39.18 44.4202 38.88 43.4069 38.28C42.4069 37.68 41.6269 36.8533 41.0669 35.8C40.5202 34.7333 40.2469 33.5333 40.2469 32.2C40.2469 30.84 40.5335 29.64 41.1069 28.6C41.6935 27.56 42.4935 26.7533 43.5069 26.18C44.5202 25.5933 45.6602 25.3 46.9269 25.3C48.2202 25.3 49.3735 25.5867 50.3869 26.16C51.4135 26.7333 52.2069 27.5333 52.7669 28.56C53.3402 29.5867 53.6269 30.7733 53.6269 32.12C53.6269 33.4533 53.3402 34.66 52.7669 35.74C52.2069 36.8067 51.4202 37.6467 50.4069 38.26C49.3935 38.8733 48.2335 39.18 46.9269 39.18ZM47.2869 38.04C48.0469 38.04 48.7069 37.8067 49.2669 37.34C49.8269 36.8733 50.2535 36.2333 50.5469 35.42C50.8535 34.5933 51.0069 33.66 51.0069 32.62C51.0069 31.4733 50.8135 30.4267 50.4269 29.48C50.0535 28.5333 49.5269 27.7867 48.8469 27.24C48.1669 26.68 47.4002 26.4 46.5469 26.4C45.8402 26.4 45.2069 26.62 44.6469 27.06C44.0869 27.4867 43.6469 28.1 43.3269 28.9C43.0202 29.7 42.8669 30.6267 42.8669 31.68C42.8669 32.8133 43.0402 33.8667 43.3869 34.84C43.7335 35.8 44.2402 36.5733 44.9069 37.16C45.5735 37.7467 46.3669 38.04 47.2869 38.04ZM66.272 25.48C67.0587 25.48 67.712 25.46 68.232 25.42C68.232 25.8867 68.1987 26.24 68.132 26.48C67.812 26.4933 67.5654 26.5867 67.392 26.76C67.232 26.92 67.112 27.2 67.032 27.6C66.9654 28 66.932 28.5733 66.932 29.32V39C66.6387 39.0933 66.2587 39.14 65.792 39.14L57.932 28.76V35.08C57.932 35.8533 57.972 36.4467 58.052 36.86C58.132 37.26 58.272 37.5467 58.472 37.72C58.6854 37.8933 58.9854 37.9867 59.372 38C59.452 38.24 59.492 38.5933 59.492 39.06C58.892 39.02 58.192 39 57.392 39C56.432 39 55.712 39.02 55.232 39.06C55.232 38.6067 55.2654 38.2533 55.332 38C55.7187 37.9867 56.012 37.8933 56.212 37.72C56.4254 37.5467 56.572 37.26 56.652 36.86C56.7454 36.4467 56.792 35.8533 56.792 35.08V27.26L56.652 27.08C56.4787 26.8667 56.3054 26.72 56.132 26.64C55.972 26.56 55.7054 26.5067 55.332 26.48C55.2654 26.2 55.232 25.8467 55.232 25.42C55.6587 25.46 56.2587 25.48 57.032 25.48C57.6854 25.48 58.2187 25.46 58.632 25.42L65.772 34.98V29.32C65.772 28.56 65.732 27.9867 65.652 27.6C65.572 27.2 65.4254 26.92 65.212 26.76C65.012 26.5867 64.712 26.4933 64.312 26.48C64.232 26.1067 64.192 25.7533 64.192 25.42C64.7787 25.46 65.472 25.48 66.272 25.48Z" fill="#073C53"/>
<path d="M95.06 36.18C95.3267 36.6467 95.5533 37 95.74 37.24C95.94 37.4667 96.1667 37.6333 96.42 37.74C96.6733 37.8467 97.0133 37.9133 97.44 37.94C97.44 38.38 97.4 38.7333 97.32 39C95.7733 39 94.6 39.06 93.8 39.18C93.3867 38.46 93.0533 37.8333 92.8 37.3C92.5467 36.7533 92.3933 36.42 92.34 36.3C91.9533 35.5533 91.6133 34.96 91.32 34.52C91.0267 34.08 90.6267 33.6133 90.12 33.12L89.5 33.14L88.92 33.12V36.08C88.92 36.6 88.9533 36.9933 89.02 37.26C89.1 37.5267 89.2267 37.7133 89.4 37.82C89.5733 37.9267 89.8267 37.9867 90.16 38C90.2267 38.2133 90.26 38.5667 90.26 39.06C89.7 39.02 88.8067 39 87.58 39C86.5267 39 85.66 39.02 84.98 39.06C84.98 38.5933 85.02 38.24 85.1 38C85.4733 37.9733 85.7533 37.9067 85.94 37.8C86.1267 37.6933 86.26 37.5133 86.34 37.26C86.42 37.0067 86.46 36.6267 86.46 36.12V28.34C86.46 27.8333 86.42 27.4533 86.34 27.2C86.26 26.9333 86.12 26.7467 85.92 26.64C85.7333 26.5333 85.4533 26.4733 85.08 26.46C85.0133 26.2067 84.98 25.86 84.98 25.42C85.4733 25.46 86.3667 25.48 87.66 25.48L89.24 25.46C90.0933 25.4333 90.7533 25.42 91.22 25.42C92.7133 25.42 93.84 25.7467 94.6 26.4C95.3733 27.04 95.76 27.8733 95.76 28.9C95.76 29.86 95.4667 30.6667 94.88 31.32C94.3067 31.9733 93.52 32.4267 92.52 32.68C92.9867 33.08 93.3733 33.5 93.68 33.94C94 34.38 94.46 35.1267 95.06 36.18ZM88.92 32C89.24 32.04 89.5067 32.06 89.72 32.06C90.7333 32.06 91.56 31.82 92.2 31.34C92.8533 30.8467 93.18 30.1267 93.18 29.18C93.18 28.3267 92.9333 27.6667 92.44 27.2C91.96 26.72 91.22 26.48 90.22 26.48C89.8067 26.48 89.3733 26.5333 88.92 26.64V32ZM100.327 28.34C100.327 27.8467 100.287 27.4733 100.207 27.22C100.127 26.9667 99.9939 26.7867 99.8072 26.68C99.6205 26.5733 99.3405 26.5067 98.9672 26.48C98.8872 26.2 98.8472 25.8467 98.8472 25.42C99.5672 25.46 100.481 25.48 101.587 25.48C102.574 25.48 103.467 25.46 104.267 25.42C104.267 25.62 104.261 25.8133 104.247 26C104.234 26.1867 104.201 26.3467 104.147 26.48C103.774 26.5067 103.494 26.5733 103.307 26.68C103.121 26.7867 102.987 26.9667 102.907 27.22C102.827 27.4733 102.787 27.8467 102.787 28.34V36.12C102.787 36.6267 102.827 37.0067 102.907 37.26C102.987 37.5133 103.121 37.6933 103.307 37.8C103.494 37.9067 103.774 37.9733 104.147 38C104.227 38.2133 104.267 38.5667 104.267 39.06C103.534 39.02 102.661 39 101.647 39C100.527 39 99.5939 39.02 98.8472 39.06C98.8472 38.6067 98.8872 38.2533 98.9672 38C99.3405 37.9733 99.6205 37.9067 99.8072 37.8C99.9939 37.6933 100.127 37.5133 100.207 37.26C100.287 37.0067 100.327 36.6267 100.327 36.12V28.34ZM116.65 25.48C117.477 25.48 118.15 25.46 118.67 25.42C118.67 25.78 118.63 26.1333 118.55 26.48C118.177 26.56 117.87 26.7733 117.63 27.12C117.39 27.4533 117.13 27.9933 116.85 28.74C115.277 32.7533 113.89 36.18 112.69 39.02C112.437 39.1 112.077 39.14 111.61 39.14C110.143 35.18 108.77 31.7333 107.49 28.8C107.183 28.0933 106.95 27.5933 106.79 27.3C106.643 27.0067 106.497 26.8067 106.35 26.7C106.217 26.58 106.03 26.5067 105.79 26.48C105.71 26.2133 105.67 25.86 105.67 25.42C106.23 25.46 107.117 25.48 108.33 25.48C109.21 25.48 110.103 25.46 111.01 25.42C111.01 25.82 110.97 26.1733 110.89 26.48C110.49 26.5067 110.197 26.5733 110.01 26.68C109.837 26.7733 109.75 26.94 109.75 27.18C109.75 27.4467 109.897 27.9267 110.19 28.62C111.243 31.1267 112.143 33.4933 112.89 35.72C114.037 33.0667 114.97 30.7133 115.69 28.66C115.85 28.22 115.93 27.84 115.93 27.52C115.93 26.9067 115.59 26.56 114.91 26.48C114.83 26.2267 114.79 25.8733 114.79 25.42C115.337 25.46 115.957 25.48 116.65 25.48ZM129.498 35.36C130.018 35.4533 130.418 35.6333 130.698 35.9C130.404 36.8067 130.198 37.8533 130.078 39.04C128.878 39.0133 127.364 39 125.538 39C122.884 39 121.064 39.02 120.078 39.06C120.078 38.5667 120.118 38.2133 120.198 38C120.571 37.9733 120.851 37.9067 121.038 37.8C121.224 37.6933 121.358 37.5 121.438 37.22C121.518 36.94 121.558 36.52 121.558 35.96V28.34C121.558 27.8467 121.518 27.4733 121.438 27.22C121.358 26.9667 121.218 26.7867 121.018 26.68C120.831 26.5733 120.551 26.5067 120.178 26.48C120.111 26.24 120.078 25.8867 120.078 25.42C120.984 25.46 122.291 25.48 123.998 25.48C126.144 25.48 127.998 25.46 129.558 25.42C129.691 26.9267 129.831 28.02 129.978 28.7C129.684 28.8733 129.284 28.96 128.778 28.96C128.698 28.2 128.431 27.6 127.978 27.16C127.524 26.7067 126.744 26.48 125.638 26.48H124.018V31.7H124.938C125.711 31.7 126.244 31.5933 126.538 31.38C126.831 31.1533 126.984 30.7333 126.998 30.12C127.318 30.0133 127.711 29.96 128.178 29.96C128.138 30.6133 128.118 31.3533 128.118 32.18C128.118 33.0733 128.138 33.8533 128.178 34.52C127.684 34.52 127.304 34.48 127.038 34.4C126.984 33.7467 126.811 33.3067 126.518 33.08C126.224 32.8533 125.698 32.74 124.938 32.74H124.018V35.94C124.018 36.4867 124.064 36.9 124.158 37.18C124.264 37.46 124.438 37.66 124.678 37.78C124.931 37.8867 125.298 37.94 125.778 37.94H125.958C126.744 37.94 127.358 37.8467 127.798 37.66C128.251 37.4733 128.591 37.2067 128.818 36.86C129.058 36.5133 129.284 36.0133 129.498 35.36ZM142.443 36.18C142.709 36.6467 142.936 37 143.123 37.24C143.323 37.4667 143.549 37.6333 143.803 37.74C144.056 37.8467 144.396 37.9133 144.823 37.94C144.823 38.38 144.783 38.7333 144.703 39C143.156 39 141.983 39.06 141.183 39.18C140.769 38.46 140.436 37.8333 140.183 37.3C139.929 36.7533 139.776 36.42 139.723 36.3C139.336 35.5533 138.996 34.96 138.703 34.52C138.409 34.08 138.009 33.6133 137.503 33.12L136.883 33.14L136.303 33.12V36.08C136.303 36.6 136.336 36.9933 136.403 37.26C136.483 37.5267 136.609 37.7133 136.783 37.82C136.956 37.9267 137.209 37.9867 137.543 38C137.609 38.2133 137.643 38.5667 137.643 39.06C137.083 39.02 136.189 39 134.963 39C133.909 39 133.043 39.02 132.363 39.06C132.363 38.5933 132.403 38.24 132.483 38C132.856 37.9733 133.136 37.9067 133.323 37.8C133.509 37.6933 133.643 37.5133 133.723 37.26C133.803 37.0067 133.843 36.6267 133.843 36.12V28.34C133.843 27.8333 133.803 27.4533 133.723 27.2C133.643 26.9333 133.503 26.7467 133.303 26.64C133.116 26.5333 132.836 26.4733 132.463 26.46C132.396 26.2067 132.363 25.86 132.363 25.42C132.856 25.46 133.749 25.48 135.043 25.48L136.623 25.46C137.476 25.4333 138.136 25.42 138.603 25.42C140.096 25.42 141.223 25.7467 141.983 26.4C142.756 27.04 143.143 27.8733 143.143 28.9C143.143 29.86 142.849 30.6667 142.263 31.32C141.689 31.9733 140.903 32.4267 139.903 32.68C140.369 33.08 140.756 33.5 141.063 33.94C141.383 34.38 141.843 35.1267 142.443 36.18ZM136.303 32C136.623 32.04 136.889 32.06 137.103 32.06C138.116 32.06 138.943 31.82 139.583 31.34C140.236 30.8467 140.563 30.1267 140.563 29.18C140.563 28.3267 140.316 27.6667 139.823 27.2C139.343 26.72 138.603 26.48 137.603 26.48C137.189 26.48 136.756 26.5333 136.303 26.64V32Z" fill="#073C53"/>
<path d="M16.1851 64.825C16.2947 65.201 16.3496 65.6162 16.3496 66.0705C15.7386 66.0235 14.7516 66 13.3886 66C11.9316 66 10.9054 66.0235 10.3101 66.0705C10.3101 65.5378 10.3727 65.1227 10.4981 64.825C10.8897 64.778 11.1717 64.6997 11.3441 64.59C11.5321 64.4803 11.6261 64.3158 11.6261 64.0965C11.6261 63.8615 11.5164 63.5012 11.2971 63.0155L10.5216 61.1825C8.09325 61.1825 6.10358 61.2217 4.55258 61.3L4.08258 62.522C3.87891 63.039 3.77708 63.4698 3.77708 63.8145C3.77708 64.1278 3.87108 64.3707 4.05908 64.543C4.24708 64.6997 4.53691 64.7937 4.92858 64.825C5.05391 65.201 5.11658 65.6162 5.11658 66.0705C4.58391 66.0235 3.78491 66 2.71958 66C2.26524 66 1.59158 66.0235 0.698578 66.0705C0.698578 65.5848 0.761245 65.1775 0.886578 64.8485C1.29391 64.7702 1.60724 64.5743 1.82658 64.261C2.06158 63.932 2.37491 63.2975 2.76658 62.3575L7.65458 50.0905C7.98358 50.0122 8.36741 49.973 8.80608 49.973L14.3051 62.428C14.6027 63.086 14.8456 63.5795 15.0336 63.9085C15.2216 64.2218 15.3939 64.449 15.5506 64.59C15.7229 64.7153 15.9344 64.7937 16.1851 64.825ZM10.0046 59.984L8.47708 56.412C8.05408 55.472 7.69375 54.5398 7.39608 53.6155C7.11408 54.5242 6.79291 55.4563 6.43258 56.412L5.06958 59.984H10.0046ZM30.8728 50.114C31.7971 50.114 32.5648 50.0905 33.1758 50.0435C33.1758 50.5918 33.1366 51.007 33.0583 51.289C32.6823 51.3047 32.3924 51.4143 32.1888 51.618C32.0008 51.806 31.8598 52.135 31.7658 52.605C31.6874 53.075 31.6483 53.7487 31.6483 54.626V66C31.3036 66.1097 30.8571 66.1645 30.3088 66.1645L21.0733 53.968V61.394C21.0733 62.3027 21.1203 62.9998 21.2143 63.4855C21.3083 63.9555 21.4728 64.2923 21.7078 64.496C21.9584 64.6997 22.3109 64.8093 22.7653 64.825C22.8593 65.107 22.9063 65.5222 22.9063 66.0705C22.2013 66.0235 21.3788 66 20.4388 66C19.3108 66 18.4648 66.0235 17.9008 66.0705C17.9008 65.5378 17.9399 65.1227 18.0183 64.825C18.4726 64.8093 18.8173 64.6997 19.0523 64.496C19.3029 64.2923 19.4753 63.9555 19.5693 63.4855C19.6789 62.9998 19.7338 62.3027 19.7338 61.394V52.2055L19.5693 51.994C19.3656 51.7433 19.1619 51.571 18.9583 51.477C18.7703 51.383 18.4569 51.3203 18.0183 51.289C17.9399 50.96 17.9008 50.5448 17.9008 50.0435C18.4021 50.0905 19.1071 50.114 20.0158 50.114C20.7834 50.114 21.4101 50.0905 21.8958 50.0435L30.2853 61.2765V54.626C30.2853 53.733 30.2383 53.0593 30.1443 52.605C30.0503 52.135 29.8779 51.806 29.6273 51.618C29.3923 51.4143 29.0398 51.3047 28.5698 51.289C28.4758 50.8503 28.4288 50.4352 28.4288 50.0435C29.1181 50.0905 29.9328 50.114 30.8728 50.114ZM47.8491 50.0435C47.8021 51.1558 47.8883 52.4718 48.1076 53.9915C47.669 54.1795 47.1598 54.2657 46.5801 54.25C46.5018 53.263 46.2511 52.5345 45.8281 52.0645C45.4208 51.5945 44.7863 51.3595 43.9246 51.3595H42.8906V62.616C42.8906 63.2113 42.9376 63.6578 43.0316 63.9555C43.1413 64.2532 43.3293 64.4647 43.5956 64.59C43.862 64.7153 44.2771 64.7937 44.8411 64.825C44.9508 65.107 45.0056 65.5222 45.0056 66.0705C44.0186 66.0235 42.8515 66 41.5041 66C39.9375 66 38.692 66.0235 37.7676 66.0705C37.7676 65.5222 37.8225 65.107 37.9321 64.825C38.4961 64.7937 38.9191 64.7153 39.2011 64.59C39.4831 64.4647 39.679 64.2532 39.7886 63.9555C39.914 63.6578 39.9766 63.2113 39.9766 62.616V51.3595H39.1071C38.4335 51.3595 37.9008 51.4692 37.5091 51.6885C37.1331 51.9078 36.8511 52.2212 36.6631 52.6285C36.4751 53.0202 36.3028 53.5607 36.1461 54.25C35.4725 54.25 34.979 54.1717 34.6656 54.015C34.9633 52.4953 35.1121 51.1715 35.1121 50.0435C36.0991 50.0905 38.222 50.114 41.4806 50.114C44.7393 50.114 46.8621 50.0905 47.8491 50.0435ZM63.2111 62.616C63.2111 63.2113 63.2581 63.6578 63.3521 63.9555C63.4461 64.2532 63.6028 64.4647 63.8221 64.59C64.0415 64.7153 64.3705 64.7937 64.8091 64.825C64.9031 65.1227 64.9501 65.5378 64.9501 66.0705C64.0885 66.0235 63.0545 66 61.8481 66C60.5478 66 59.4511 66.0235 58.5581 66.0705C58.5581 65.6005 58.613 65.1853 58.7226 64.825C59.1613 64.7937 59.4903 64.7153 59.7096 64.59C59.929 64.4647 60.0778 64.2532 60.1561 63.9555C60.2501 63.6578 60.2971 63.2113 60.2971 62.616V58.4565C57.0855 58.4565 54.9391 58.5113 53.8581 58.621V62.616C53.8581 63.2113 53.9051 63.6578 53.9991 63.9555C54.0931 64.2532 54.2498 64.4647 54.4691 64.59C54.6885 64.7153 55.0175 64.7937 55.4561 64.825C55.5501 65.0757 55.5971 65.4908 55.5971 66.0705C54.7355 66.0235 53.7093 66 52.5186 66C51.2026 66 50.106 66.0235 49.2286 66.0705C49.2286 65.5378 49.2756 65.1227 49.3696 64.825C49.8083 64.7937 50.1373 64.7153 50.3566 64.59C50.576 64.4647 50.7326 64.2532 50.8266 63.9555C50.9206 63.6578 50.9676 63.2113 50.9676 62.616V53.4745C50.9676 52.8948 50.9206 52.4562 50.8266 52.1585C50.7326 51.8608 50.576 51.6493 50.3566 51.524C50.1373 51.3987 49.8083 51.3203 49.3696 51.289C49.2756 50.96 49.2286 50.5448 49.2286 50.0435C50.0746 50.0905 51.1478 50.114 52.4481 50.114C53.6075 50.114 54.6571 50.0905 55.5971 50.0435C55.5971 50.2785 55.5893 50.5057 55.5736 50.725C55.558 50.9443 55.5188 51.1323 55.4561 51.289C55.0175 51.3203 54.6885 51.3987 54.4691 51.524C54.2498 51.6493 54.0931 51.8608 53.9991 52.1585C53.9051 52.4562 53.8581 52.8948 53.8581 53.4745V57.211H60.2971V53.4745C60.2971 52.8948 60.2501 52.4562 60.1561 52.1585C60.0778 51.8608 59.929 51.6493 59.7096 51.524C59.4903 51.3987 59.1613 51.3203 58.7226 51.289C58.613 50.9757 58.5581 50.5605 58.5581 50.0435C59.4041 50.0905 60.4851 50.114 61.8011 50.114C62.9605 50.114 64.0101 50.0905 64.9501 50.0435C64.9501 50.5918 64.9031 51.007 64.8091 51.289C64.3705 51.3203 64.0415 51.3987 63.8221 51.524C63.6028 51.6493 63.4461 51.8608 63.3521 52.1585C63.2581 52.4562 63.2111 52.8948 63.2111 53.4745V62.616ZM74.7638 66.2115C73.1971 66.2115 71.8185 65.859 70.6278 65.154C69.4528 64.449 68.5363 63.4777 67.8783 62.24C67.236 60.9867 66.9148 59.5767 66.9148 58.01C66.9148 56.412 67.2516 55.002 67.9253 53.78C68.6146 52.558 69.5546 51.6102 70.7453 50.9365C71.936 50.2472 73.2755 49.9025 74.7638 49.9025C76.2835 49.9025 77.6386 50.2393 78.8293 50.913C80.0356 51.5867 80.9678 52.5267 81.6258 53.733C82.2995 54.9393 82.6363 56.3337 82.6363 57.916C82.6363 59.4827 82.2995 60.9005 81.6258 62.1695C80.9678 63.4228 80.0435 64.4098 78.8528 65.1305C77.6621 65.8512 76.2991 66.2115 74.7638 66.2115ZM75.1868 64.872C76.0798 64.872 76.8553 64.5978 77.5133 64.0495C78.1713 63.5012 78.6726 62.7492 79.0173 61.7935C79.3776 60.8222 79.5578 59.7255 79.5578 58.5035C79.5578 57.1562 79.3306 55.9263 78.8763 54.814C78.4376 53.7017 77.8188 52.8243 77.0198 52.182C76.2208 51.524 75.32 51.195 74.3173 51.195C73.487 51.195 72.7428 51.4535 72.0848 51.9705C71.4268 52.4718 70.9098 53.1925 70.5338 54.1325C70.1735 55.0725 69.9933 56.1613 69.9933 57.399C69.9933 58.7307 70.197 59.9683 70.6043 61.112C71.0116 62.24 71.607 63.1487 72.3903 63.838C73.1736 64.5273 74.1058 64.872 75.1868 64.872ZM91.5253 64.7545C92.293 64.7545 92.9118 64.6605 93.3818 64.4725C93.8518 64.2688 94.2278 63.9555 94.5098 63.5325C94.8075 63.1095 95.0817 62.5063 95.3323 61.723C95.959 61.8327 96.429 62.0442 96.7423 62.3575C96.429 63.2975 96.1862 64.5273 96.0138 66.047C94.6352 66.0157 92.9745 66 91.0318 66C87.9142 66 85.7757 66.0235 84.6163 66.0705C84.6163 65.4908 84.6633 65.0757 84.7573 64.825C85.196 64.7937 85.525 64.7153 85.7443 64.59C85.9793 64.4647 86.1438 64.2375 86.2378 63.9085C86.3318 63.5638 86.3788 63.0703 86.3788 62.428V53.4745C86.3788 52.8948 86.3318 52.4562 86.2378 52.1585C86.1438 51.8608 85.9793 51.6493 85.7443 51.524C85.525 51.3987 85.196 51.3203 84.7573 51.289C84.679 51.007 84.6398 50.5918 84.6398 50.0435C85.6895 50.0905 86.747 50.114 87.8123 50.114C89.003 50.114 90.0683 50.0905 91.0083 50.0435C91.0083 50.6075 90.9613 51.0227 90.8673 51.289C90.4287 51.3203 90.0997 51.3987 89.8803 51.524C89.661 51.6493 89.5043 51.8687 89.4103 52.182C89.3163 52.4797 89.2693 52.9262 89.2693 53.5215V62.4045C89.2693 63.0468 89.3242 63.5325 89.4338 63.8615C89.5435 64.1905 89.7393 64.4255 90.0213 64.5665C90.319 64.6918 90.7498 64.7545 91.3138 64.7545H91.5253ZM105.837 66.2115C104.27 66.2115 102.892 65.859 101.701 65.154C100.526 64.449 99.6095 63.4777 98.9515 62.24C98.3092 60.9867 97.988 59.5767 97.988 58.01C97.988 56.412 98.3249 55.002 98.9985 53.78C99.6879 52.558 100.628 51.6102 101.819 50.9365C103.009 50.2472 104.349 49.9025 105.837 49.9025C107.357 49.9025 108.712 50.2393 109.903 50.913C111.109 51.5867 112.041 52.5267 112.699 53.733C113.373 54.9393 113.71 56.3337 113.71 57.916C113.71 59.4827 113.373 60.9005 112.699 62.1695C112.041 63.4228 111.117 64.4098 109.926 65.1305C108.735 65.8512 107.372 66.2115 105.837 66.2115ZM106.26 64.872C107.153 64.872 107.929 64.5978 108.587 64.0495C109.245 63.5012 109.746 62.7492 110.091 61.7935C110.451 60.8222 110.631 59.7255 110.631 58.5035C110.631 57.1562 110.404 55.9263 109.95 54.814C109.511 53.7017 108.892 52.8243 108.093 52.182C107.294 51.524 106.393 51.195 105.391 51.195C104.56 51.195 103.816 51.4535 103.158 51.9705C102.5 52.4718 101.983 53.1925 101.607 54.1325C101.247 55.0725 101.067 56.1613 101.067 57.399C101.067 58.7307 101.27 59.9683 101.678 61.112C102.085 62.24 102.68 63.1487 103.464 63.838C104.247 64.5273 105.179 64.872 106.26 64.872ZM123.257 66.2115C121.674 66.2115 120.288 65.8747 119.097 65.201C117.906 64.5117 116.982 63.5403 116.324 62.287C115.682 61.0337 115.361 59.561 115.361 57.869C115.361 56.1927 115.729 54.7592 116.465 53.5685C117.217 52.3622 118.212 51.4535 119.45 50.8425C120.703 50.2158 122.082 49.9025 123.586 49.9025C124.635 49.9025 125.646 50.0043 126.617 50.208C127.604 50.4117 128.466 50.6858 129.202 51.0305C129.03 51.9235 128.944 53.1377 128.944 54.673C128.568 54.8453 128.051 54.9315 127.393 54.9315C127.33 53.4902 126.985 52.4953 126.359 51.947C125.732 51.383 124.839 51.101 123.68 51.101C122.536 51.101 121.572 51.3908 120.789 51.9705C120.006 52.5345 119.426 53.2943 119.05 54.25C118.674 55.19 118.486 56.224 118.486 57.352C118.486 58.7777 118.682 60.0623 119.074 61.206C119.481 62.334 120.076 63.227 120.86 63.885C121.643 64.5273 122.583 64.8485 123.68 64.8485C124.103 64.8485 124.463 64.8328 124.761 64.8015C125.058 64.7545 125.348 64.6762 125.63 64.5665C125.912 64.4568 126.108 64.2845 126.218 64.0495C126.343 63.7988 126.406 63.3915 126.406 62.8275V61.7465C126.406 61.0728 126.359 60.595 126.265 60.313C126.171 60.031 125.998 59.843 125.748 59.749C125.497 59.6393 125.074 59.5767 124.479 59.561C124.385 59.2477 124.338 58.8168 124.338 58.2685C124.792 58.3155 125.787 58.339 127.322 58.339C128.842 58.339 129.813 58.3233 130.236 58.292C130.236 58.8403 130.189 59.2633 130.095 59.561C129.782 59.5767 129.555 59.6315 129.414 59.7255C129.273 59.8195 129.179 60.0075 129.132 60.2895C129.085 60.5558 129.061 61.0102 129.061 61.6525V62.569C129.061 63.0077 129.077 63.368 129.108 63.65C129.155 63.9163 129.249 64.1748 129.39 64.4255C128.654 64.9582 127.753 65.389 126.688 65.718C125.638 66.047 124.494 66.2115 123.257 66.2115ZM143.237 50.114C143.832 50.114 144.521 50.0983 145.305 50.067C145.305 50.4273 145.266 50.819 145.187 51.242C144.78 51.336 144.404 51.5632 144.059 51.9235C143.73 52.2838 143.386 52.8478 143.025 53.6155L139.923 60.0075V61.9345C139.923 62.7805 139.97 63.3915 140.064 63.7675C140.158 64.1278 140.331 64.3785 140.581 64.5195C140.832 64.6605 141.263 64.7623 141.874 64.825C141.983 65.1383 142.038 65.5535 142.038 66.0705C140.91 66.0235 139.727 66 138.49 66C137.189 66 135.96 66.0157 134.8 66.047C134.8 65.5613 134.855 65.154 134.965 64.825C135.623 64.778 136.085 64.6918 136.351 64.5665C136.618 64.4412 136.798 64.2062 136.892 63.8615C136.986 63.5168 137.033 62.945 137.033 62.146V60.031L133.296 52.652C133.046 52.1507 132.795 51.7982 132.544 51.5945C132.309 51.3908 131.996 51.2812 131.604 51.2655C131.51 50.9522 131.463 50.5527 131.463 50.067C132.497 50.0983 133.453 50.114 134.33 50.114C136.038 50.114 137.158 50.0983 137.691 50.067C137.691 50.5213 137.652 50.913 137.573 51.242C137.213 51.2733 136.954 51.3517 136.798 51.477C136.641 51.5867 136.563 51.7512 136.563 51.9705C136.563 52.2368 136.696 52.6363 136.962 53.169C137.746 54.7357 138.56 56.506 139.406 58.48C140.174 56.6783 140.949 54.9785 141.733 53.3805C142.015 52.8165 142.156 52.3857 142.156 52.088C142.156 51.853 142.07 51.6728 141.897 51.5475C141.725 51.4065 141.459 51.3125 141.098 51.2655C140.973 50.8582 140.91 50.4587 140.91 50.067C141.333 50.0983 142.109 50.114 143.237 50.114Z" fill="#073C53"/>
<path d="M0.883188 80.812C0.883188 79.996 1.06719 79.264 1.43519 78.616C1.80319 77.96 2.30319 77.448 2.93519 77.08C3.57519 76.712 4.28319 76.528 5.05919 76.528C5.97119 76.528 6.76719 76.748 7.44719 77.188C8.12719 77.628 8.62319 78.252 8.93519 79.06H7.62719C7.39519 78.556 7.05919 78.168 6.61919 77.896C6.18719 77.624 5.66719 77.488 5.05919 77.488C4.47519 77.488 3.95119 77.624 3.48719 77.896C3.02319 78.168 2.65919 78.556 2.39519 79.06C2.13119 79.556 1.99919 80.14 1.99919 80.812C1.99919 81.476 2.13119 82.06 2.39519 82.564C2.65919 83.06 3.02319 83.444 3.48719 83.716C3.95119 83.988 4.47519 84.124 5.05919 84.124C5.66719 84.124 6.18719 83.992 6.61919 83.728C7.05919 83.456 7.39519 83.068 7.62719 82.564H8.93519C8.62319 83.364 8.12719 83.984 7.44719 84.424C6.76719 84.856 5.97119 85.072 5.05919 85.072C4.28319 85.072 3.57519 84.892 2.93519 84.532C2.30319 84.164 1.80319 83.656 1.43519 83.008C1.06719 82.36 0.883188 81.628 0.883188 80.812ZM10.1527 81.688C10.1527 81.016 10.2887 80.428 10.5607 79.924C10.8327 79.412 11.2047 79.016 11.6767 78.736C12.1567 78.456 12.6887 78.316 13.2727 78.316C13.8487 78.316 14.3487 78.44 14.7727 78.688C15.1967 78.936 15.5127 79.248 15.7207 79.624V78.424H16.8247V85H15.7207V83.776C15.5047 84.16 15.1807 84.48 14.7487 84.736C14.3247 84.984 13.8287 85.108 13.2607 85.108C12.6767 85.108 12.1487 84.964 11.6767 84.676C11.2047 84.388 10.8327 83.984 10.5607 83.464C10.2887 82.944 10.1527 82.352 10.1527 81.688ZM15.7207 81.7C15.7207 81.204 15.6207 80.772 15.4207 80.404C15.2207 80.036 14.9487 79.756 14.6047 79.564C14.2687 79.364 13.8967 79.264 13.4887 79.264C13.0807 79.264 12.7087 79.36 12.3727 79.552C12.0367 79.744 11.7687 80.024 11.5687 80.392C11.3687 80.76 11.2687 81.192 11.2687 81.688C11.2687 82.192 11.3687 82.632 11.5687 83.008C11.7687 83.376 12.0367 83.66 12.3727 83.86C12.7087 84.052 13.0807 84.148 13.4887 84.148C13.8967 84.148 14.2687 84.052 14.6047 83.86C14.9487 83.66 15.2207 83.376 15.4207 83.008C15.6207 82.632 15.7207 82.196 15.7207 81.7ZM20.9981 85.108C20.4941 85.108 20.0421 85.024 19.6421 84.856C19.2421 84.68 18.9261 84.44 18.6941 84.136C18.4621 83.824 18.3341 83.468 18.3101 83.068H19.4381C19.4701 83.396 19.6221 83.664 19.8941 83.872C20.1741 84.08 20.5381 84.184 20.9861 84.184C21.4021 84.184 21.7301 84.092 21.9701 83.908C22.2101 83.724 22.3301 83.492 22.3301 83.212C22.3301 82.924 22.2021 82.712 21.9461 82.576C21.6901 82.432 21.2941 82.292 20.7581 82.156C20.2701 82.028 19.8701 81.9 19.5581 81.772C19.2541 81.636 18.9901 81.44 18.7661 81.184C18.5501 80.92 18.4421 80.576 18.4421 80.152C18.4421 79.816 18.5421 79.508 18.7421 79.228C18.9421 78.948 19.2261 78.728 19.5941 78.568C19.9621 78.4 20.3821 78.316 20.8541 78.316C21.5821 78.316 22.1701 78.5 22.6181 78.868C23.0661 79.236 23.3061 79.74 23.3381 80.38H22.2461C22.2221 80.036 22.0821 79.76 21.8261 79.552C21.5781 79.344 21.2421 79.24 20.8181 79.24C20.4261 79.24 20.1141 79.324 19.8821 79.492C19.6501 79.66 19.5341 79.88 19.5341 80.152C19.5341 80.368 19.6021 80.548 19.7381 80.692C19.8821 80.828 20.0581 80.94 20.2661 81.028C20.4821 81.108 20.7781 81.2 21.1541 81.304C21.6261 81.432 22.0101 81.56 22.3061 81.688C22.6021 81.808 22.8541 81.992 23.0621 82.24C23.2781 82.488 23.3901 82.812 23.3981 83.212C23.3981 83.572 23.2981 83.896 23.0981 84.184C22.8981 84.472 22.6141 84.7 22.2461 84.868C21.8861 85.028 21.4701 85.108 20.9981 85.108ZM30.9396 81.46C30.9396 81.668 30.9276 81.888 30.9036 82.12H25.6476C25.6876 82.768 25.9076 83.276 26.3076 83.644C26.7156 84.004 27.2076 84.184 27.7836 84.184C28.2556 84.184 28.6476 84.076 28.9596 83.86C29.2796 83.636 29.5036 83.34 29.6316 82.972H30.8076C30.6316 83.604 30.2796 84.12 29.7516 84.52C29.2236 84.912 28.5676 85.108 27.7836 85.108C27.1596 85.108 26.5996 84.968 26.1036 84.688C25.6156 84.408 25.2316 84.012 24.9516 83.5C24.6716 82.98 24.5316 82.38 24.5316 81.7C24.5316 81.02 24.6676 80.424 24.9396 79.912C25.2116 79.4 25.5916 79.008 26.0796 78.736C26.5756 78.456 27.1436 78.316 27.7836 78.316C28.4076 78.316 28.9596 78.452 29.4396 78.724C29.9196 78.996 30.2876 79.372 30.5436 79.852C30.8076 80.324 30.9396 80.86 30.9396 81.46ZM29.8116 81.232C29.8116 80.816 29.7196 80.46 29.5356 80.164C29.3516 79.86 29.0996 79.632 28.7796 79.48C28.4676 79.32 28.1196 79.24 27.7356 79.24C27.1836 79.24 26.7116 79.416 26.3196 79.768C25.9356 80.12 25.7156 80.608 25.6596 81.232H29.8116ZM33.473 79.492C33.665 79.116 33.937 78.824 34.289 78.616C34.649 78.408 35.085 78.304 35.597 78.304V79.432H35.309C34.085 79.432 33.473 80.096 33.473 81.424V85H32.381V78.424H33.473V79.492ZM38.1896 79.324V83.2C38.1896 83.52 38.2576 83.748 38.3936 83.884C38.5296 84.012 38.7656 84.076 39.1016 84.076H39.9056V85H38.9216C38.3136 85 37.8576 84.86 37.5536 84.58C37.2496 84.3 37.0976 83.84 37.0976 83.2V79.324H36.2456V78.424H37.0976V76.768H38.1896V78.424H39.9056V79.324H38.1896ZM40.8207 81.688C40.8207 81.016 40.9567 80.428 41.2287 79.924C41.5007 79.412 41.8727 79.016 42.3447 78.736C42.8247 78.456 43.3567 78.316 43.9407 78.316C44.5167 78.316 45.0167 78.44 45.4407 78.688C45.8647 78.936 46.1807 79.248 46.3887 79.624V78.424H47.4927V85H46.3887V83.776C46.1727 84.16 45.8487 84.48 45.4167 84.736C44.9927 84.984 44.4967 85.108 43.9287 85.108C43.3447 85.108 42.8167 84.964 42.3447 84.676C41.8727 84.388 41.5007 83.984 41.2287 83.464C40.9567 82.944 40.8207 82.352 40.8207 81.688ZM46.3887 81.7C46.3887 81.204 46.2887 80.772 46.0887 80.404C45.8887 80.036 45.6167 79.756 45.2727 79.564C44.9367 79.364 44.5647 79.264 44.1567 79.264C43.7487 79.264 43.3767 79.36 43.0407 79.552C42.7047 79.744 42.4367 80.024 42.2367 80.392C42.0367 80.76 41.9367 81.192 41.9367 81.688C41.9367 82.192 42.0367 82.632 42.2367 83.008C42.4367 83.376 42.7047 83.66 43.0407 83.86C43.3767 84.052 43.7487 84.148 44.1567 84.148C44.5647 84.148 44.9367 84.052 45.2727 83.86C45.6167 83.66 45.8887 83.376 46.0887 83.008C46.2887 82.632 46.3887 82.196 46.3887 81.7ZM52.5421 78.304C53.3421 78.304 53.9901 78.548 54.4861 79.036C54.9821 79.516 55.2301 80.212 55.2301 81.124V85H54.1501V81.28C54.1501 80.624 53.9861 80.124 53.6581 79.78C53.3301 79.428 52.8821 79.252 52.3141 79.252C51.7381 79.252 51.2781 79.432 50.9341 79.792C50.5981 80.152 50.4301 80.676 50.4301 81.364V85H49.3381V78.424H50.4301V79.36C50.6461 79.024 50.9381 78.764 51.3061 78.58C51.6821 78.396 52.0941 78.304 52.5421 78.304ZM59.8818 85.108C59.2658 85.108 58.7058 84.968 58.2018 84.688C57.7058 84.408 57.3138 84.012 57.0258 83.5C56.7458 82.98 56.6058 82.38 56.6058 81.7C56.6058 81.028 56.7498 80.436 57.0378 79.924C57.3338 79.404 57.7338 79.008 58.2378 78.736C58.7418 78.456 59.3058 78.316 59.9298 78.316C60.5538 78.316 61.1178 78.456 61.6218 78.736C62.1258 79.008 62.5218 79.4 62.8098 79.912C63.1058 80.424 63.2538 81.02 63.2538 81.7C63.2538 82.38 63.1018 82.98 62.7978 83.5C62.5018 84.012 62.0978 84.408 61.5858 84.688C61.0738 84.968 60.5058 85.108 59.8818 85.108ZM59.8818 84.148C60.2738 84.148 60.6418 84.056 60.9858 83.872C61.3298 83.688 61.6058 83.412 61.8138 83.044C62.0298 82.676 62.1378 82.228 62.1378 81.7C62.1378 81.172 62.0338 80.724 61.8258 80.356C61.6178 79.988 61.3458 79.716 61.0098 79.54C60.6738 79.356 60.3098 79.264 59.9178 79.264C59.5178 79.264 59.1498 79.356 58.8138 79.54C58.4858 79.716 58.2218 79.988 58.0218 80.356C57.8218 80.724 57.7218 81.172 57.7218 81.7C57.7218 82.236 57.8178 82.688 58.0098 83.056C58.2098 83.424 58.4738 83.7 58.8018 83.884C59.1298 84.06 59.4898 84.148 59.8818 84.148ZM69.4248 82.468C69.0168 82.468 68.6688 82.328 68.3808 82.048C68.1008 81.76 67.9608 81.412 67.9608 81.004C67.9608 80.588 68.1008 80.24 68.3808 79.96C68.6688 79.672 69.0168 79.528 69.4248 79.528C69.8408 79.528 70.1928 79.672 70.4808 79.96C70.7688 80.24 70.9128 80.588 70.9128 81.004C70.9128 81.412 70.7688 81.76 70.4808 82.048C70.1928 82.328 69.8408 82.468 69.4248 82.468ZM77.1254 84.112H80.0534V85H76.0334V76.636H77.1254V84.112ZM82.3051 76.12V85H81.2131V76.12H82.3051ZM87.0342 85.108C86.4182 85.108 85.8582 84.968 85.3542 84.688C84.8582 84.408 84.4662 84.012 84.1782 83.5C83.8982 82.98 83.7582 82.38 83.7582 81.7C83.7582 81.028 83.9022 80.436 84.1902 79.924C84.4862 79.404 84.8862 79.008 85.3902 78.736C85.8942 78.456 86.4582 78.316 87.0822 78.316C87.7062 78.316 88.2702 78.456 88.7742 78.736C89.2782 79.008 89.6742 79.4 89.9622 79.912C90.2582 80.424 90.4062 81.02 90.4062 81.7C90.4062 82.38 90.2542 82.98 89.9502 83.5C89.6542 84.012 89.2502 84.408 88.7382 84.688C88.2262 84.968 87.6582 85.108 87.0342 85.108ZM87.0342 84.148C87.4262 84.148 87.7942 84.056 88.1382 83.872C88.4822 83.688 88.7582 83.412 88.9662 83.044C89.1822 82.676 89.2902 82.228 89.2902 81.7C89.2902 81.172 89.1862 80.724 88.9782 80.356C88.7702 79.988 88.4982 79.716 88.1622 79.54C87.8262 79.356 87.4622 79.264 87.0702 79.264C86.6702 79.264 86.3022 79.356 85.9662 79.54C85.6382 79.716 85.3742 79.988 85.1742 80.356C84.9742 80.724 84.8742 81.172 84.8742 81.7C84.8742 82.236 84.9702 82.688 85.1622 83.056C85.3622 83.424 85.6262 83.7 85.9542 83.884C86.2822 84.06 86.6422 84.148 87.0342 84.148ZM97.506 78.424L93.546 88.096H92.418L93.714 84.928L91.062 78.424H92.274L94.338 83.752L96.378 78.424H97.506ZM98.1957 81.688C98.1957 81.016 98.3317 80.428 98.6037 79.924C98.8757 79.412 99.2477 79.016 99.7197 78.736C100.2 78.456 100.736 78.316 101.328 78.316C101.84 78.316 102.316 78.436 102.756 78.676C103.196 78.908 103.532 79.216 103.764 79.6V76.12H104.868V85H103.764V83.764C103.548 84.156 103.228 84.48 102.804 84.736C102.38 84.984 101.884 85.108 101.316 85.108C100.732 85.108 100.2 84.964 99.7197 84.676C99.2477 84.388 98.8757 83.984 98.6037 83.464C98.3317 82.944 98.1957 82.352 98.1957 81.688ZM103.764 81.7C103.764 81.204 103.664 80.772 103.464 80.404C103.264 80.036 102.992 79.756 102.648 79.564C102.312 79.364 101.94 79.264 101.532 79.264C101.124 79.264 100.752 79.36 100.416 79.552C100.08 79.744 99.8117 80.024 99.6117 80.392C99.4117 80.76 99.3117 81.192 99.3117 81.688C99.3117 82.192 99.4117 82.632 99.6117 83.008C99.8117 83.376 100.08 83.66 100.416 83.86C100.752 84.052 101.124 84.148 101.532 84.148C101.94 84.148 102.312 84.052 102.648 83.86C102.992 83.66 103.264 83.376 103.464 83.008C103.664 82.632 103.764 82.196 103.764 81.7ZM111.448 82.468C111.04 82.468 110.692 82.328 110.404 82.048C110.124 81.76 109.984 81.412 109.984 81.004C109.984 80.588 110.124 80.24 110.404 79.96C110.692 79.672 111.04 79.528 111.448 79.528C111.864 79.528 112.216 79.672 112.504 79.96C112.792 80.24 112.936 80.588 112.936 81.004C112.936 81.412 112.792 81.76 112.504 82.048C112.216 82.328 111.864 82.468 111.448 82.468ZM120.709 85.084C120.157 85.084 119.661 84.988 119.221 84.796C118.789 84.596 118.449 84.324 118.201 83.98C117.953 83.628 117.825 83.224 117.817 82.768H118.981C119.021 83.16 119.181 83.492 119.461 83.764C119.749 84.028 120.165 84.16 120.709 84.16C121.229 84.16 121.637 84.032 121.933 83.776C122.237 83.512 122.389 83.176 122.389 82.768C122.389 82.448 122.301 82.188 122.125 81.988C121.949 81.788 121.729 81.636 121.465 81.532C121.201 81.428 120.845 81.316 120.397 81.196C119.845 81.052 119.401 80.908 119.065 80.764C118.737 80.62 118.453 80.396 118.213 80.092C117.981 79.78 117.865 79.364 117.865 78.844C117.865 78.388 117.981 77.984 118.213 77.632C118.445 77.28 118.769 77.008 119.185 76.816C119.609 76.624 120.093 76.528 120.637 76.528C121.421 76.528 122.061 76.724 122.557 77.116C123.061 77.508 123.345 78.028 123.409 78.676H122.209C122.169 78.356 122.001 78.076 121.705 77.836C121.409 77.588 121.017 77.464 120.529 77.464C120.073 77.464 119.701 77.584 119.413 77.824C119.125 78.056 118.981 78.384 118.981 78.808C118.981 79.112 119.065 79.36 119.233 79.552C119.409 79.744 119.621 79.892 119.869 79.996C120.125 80.092 120.481 80.204 120.937 80.332C121.489 80.484 121.933 80.636 122.269 80.788C122.605 80.932 122.893 81.16 123.133 81.472C123.373 81.776 123.493 82.192 123.493 82.72C123.493 83.128 123.385 83.512 123.169 83.872C122.953 84.232 122.633 84.524 122.209 84.748C121.785 84.972 121.285 85.084 120.709 85.084ZM131.1 81.46C131.1 81.668 131.088 81.888 131.064 82.12H125.808C125.848 82.768 126.068 83.276 126.468 83.644C126.876 84.004 127.368 84.184 127.944 84.184C128.416 84.184 128.808 84.076 129.12 83.86C129.44 83.636 129.664 83.34 129.792 82.972H130.968C130.792 83.604 130.44 84.12 129.912 84.52C129.384 84.912 128.728 85.108 127.944 85.108C127.32 85.108 126.76 84.968 126.264 84.688C125.776 84.408 125.392 84.012 125.112 83.5C124.832 82.98 124.692 82.38 124.692 81.7C124.692 81.02 124.828 80.424 125.1 79.912C125.372 79.4 125.752 79.008 126.24 78.736C126.736 78.456 127.304 78.316 127.944 78.316C128.568 78.316 129.12 78.452 129.6 78.724C130.08 78.996 130.448 79.372 130.704 79.852C130.968 80.324 131.1 80.86 131.1 81.46ZM129.972 81.232C129.972 80.816 129.88 80.46 129.696 80.164C129.512 79.86 129.26 79.632 128.94 79.48C128.628 79.32 128.28 79.24 127.896 79.24C127.344 79.24 126.872 79.416 126.48 79.768C126.096 80.12 125.876 80.608 125.82 81.232H129.972ZM133.633 76.12V85H132.541V76.12H133.633ZM136.586 76.12V85H135.494V76.12H136.586ZM138.039 81.688C138.039 81.016 138.175 80.428 138.447 79.924C138.719 79.412 139.091 79.016 139.563 78.736C140.043 78.456 140.575 78.316 141.159 78.316C141.735 78.316 142.235 78.44 142.659 78.688C143.083 78.936 143.399 79.248 143.607 79.624V78.424H144.711V85H143.607V83.776C143.391 84.16 143.067 84.48 142.635 84.736C142.211 84.984 141.715 85.108 141.147 85.108C140.563 85.108 140.035 84.964 139.563 84.676C139.091 84.388 138.719 83.984 138.447 83.464C138.175 82.944 138.039 82.352 138.039 81.688ZM143.607 81.7C143.607 81.204 143.507 80.772 143.307 80.404C143.107 80.036 142.835 79.756 142.491 79.564C142.155 79.364 141.783 79.264 141.375 79.264C140.967 79.264 140.595 79.36 140.259 79.552C139.923 79.744 139.655 80.024 139.455 80.392C139.255 80.76 139.155 81.192 139.155 81.688C139.155 82.192 139.255 82.632 139.455 83.008C139.655 83.376 139.923 83.66 140.259 83.86C140.595 84.052 140.967 84.148 141.375 84.148C141.783 84.148 142.155 84.052 142.491 83.86C142.835 83.66 143.107 83.376 143.307 83.008C143.507 82.632 143.607 82.196 143.607 81.7Z" fill="black"/>
</svg>
